{
	"asset":
	{
		"version": "2.0",
		"generator": "Unreal Engine 5.3.2"
	},
	"scene": 0,
	"accessors": [
		{
			"bufferView": 0,
			"count": 101172,
			"type": "SCALAR",
			"componentType": 5123
		},
		{
			"bufferView": 1,
			"count": 18114,
			"type": "VEC3",
			"componentType": 5126,
			"min": [ -1.28664756, -1.14620178e-07, -1.1991446 ],
			"max": [ 1.28676891, 2.55506063, 1.1991446 ]
		},
		{
			"bufferView": 2,
			"count": 18114,
			"type": "VEC3",
			"componentType": 5126
		},
		{
			"bufferView": 3,
			"count": 18114,
			"type": "VEC4",
			"componentType": 5126
		},
		{
			"bufferView": 4,
			"count": 18114,
			"type": "VEC2",
			"componentType": 5126
		},
		{
			"bufferView": 5,
			"count": 18114,
			"type": "VEC2",
			"componentType": 5126
		},
		{
			"bufferView": 6,
			"count": 18114,
			"type": "VEC2",
			"componentType": 5126
		},
		{
			"bufferView": 7,
			"count": 54816,
			"type": "SCALAR",
			"componentType": 5123
		},
		{
			"bufferView": 8,
			"count": 10441,
			"type": "VEC3",
			"componentType": 5126,
			"min": [ -0.937039793, 0.136654481, -0.696265638 ],
			"max": [ 0.936772764, 2.38312674, 1.03022575 ]
		},
		{
			"bufferView": 9,
			"count": 10441,
			"type": "VEC3",
			"componentType": 5126
		},
		{
			"bufferView": 10,
			"count": 10441,
			"type": "VEC4",
			"componentType": 5126
		},
		{
			"bufferView": 11,
			"count": 10441,
			"type": "VEC2",
			"componentType": 5126
		},
		{
			"bufferView": 12,
			"count": 10441,
			"type": "VEC2",
			"componentType": 5126
		},
		{
			"bufferView": 13,
			"count": 10441,
			"type": "VEC2",
			"componentType": 5126
		},
		{
			"bufferView": 14,
			"count": 19632,
			"type": "SCALAR",
			"componentType": 5123
		},
		{
			"bufferView": 15,
			"count": 3915,
			"type": "VEC3",
			"componentType": 5126,
			"min": [ -0.220582277, 1.7025609, 0.764643013 ],
			"max": [ 0.239417046, 2.11677861, 1.03061283 ]
		},
		{
			"bufferView": 16,
			"count": 3915,
			"type": "VEC3",
			"componentType": 5126
		},
		{
			"bufferView": 17,
			"count": 3915,
			"type": "VEC4",
			"componentType": 5126
		},
		{
			"bufferView": 18,
			"count": 3915,
			"type": "VEC2",
			"componentType": 5126
		},
		{
			"bufferView": 19,
			"count": 3915,
			"type": "VEC2",
			"componentType": 5126
		},
		{
			"bufferView": 20,
			"count": 3915,
			"type": "VEC2",
			"componentType": 5126
		}
	],
	"buffers": [
		{
			"uri": "SM_MatPreviewMesh_01.bin",
			"byteLength": 2429320
		}
	],
	"bufferViews": [
		{
			"buffer": 0,
			"byteLength": 202344,
			"target": 34963
		},
		{
			"buffer": 0,
			"byteLength": 217368,
			"byteOffset": 202344,
			"target": 34962
		},
		{
			"buffer": 0,
			"byteLength": 217368,
			"byteOffset": 419712,
			"target": 34962
		},
		{
			"buffer": 0,
			"byteLength": 289824,
			"byteOffset": 637080,
			"target": 34962
		},
		{
			"buffer": 0,
			"byteLength": 144912,
			"byteOffset": 926904,
			"target": 34962
		},
		{
			"buffer": 0,
			"byteLength": 144912,
			"byteOffset": 1071816,
			"target": 34962
		},
		{
			"buffer": 0,
			"byteLength": 144912,
			"byteOffset": 1216728,
			"target": 34962
		},
		{
			"buffer": 0,
			"byteLength": 109632,
			"byteOffset": 1361640,
			"target": 34963
		},
		{
			"buffer": 0,
			"byteLength": 125292,
			"byteOffset": 1471272,
			"target": 34962
		},
		{
			"buffer": 0,
			"byteLength": 125292,
			"byteOffset": 1596564,
			"target": 34962
		},
		{
			"buffer": 0,
			"byteLength": 167056,
			"byteOffset": 1721856,
			"target": 34962
		},
		{
			"buffer": 0,
			"byteLength": 83528,
			"byteOffset": 1888912,
			"target": 34962
		},
		{
			"buffer": 0,
			"byteLength": 83528,
			"byteOffset": 1972440,
			"target": 34962
		},
		{
			"buffer": 0,
			"byteLength": 83528,
			"byteOffset": 2055968,
			"target": 34962
		},
		{
			"buffer": 0,
			"byteLength": 39264,
			"byteOffset": 2139496,
			"target": 34963
		},
		{
			"buffer": 0,
			"byteLength": 46980,
			"byteOffset": 2178760,
			"target": 34962
		},
		{
			"buffer": 0,
			"byteLength": 46980,
			"byteOffset": 2225740,
			"target": 34962
		},
		{
			"buffer": 0,
			"byteLength": 62640,
			"byteOffset": 2272720,
			"target": 34962
		},
		{
			"buffer": 0,
			"byteLength": 31320,
			"byteOffset": 2335360,
			"target": 34962
		},
		{
			"buffer": 0,
			"byteLength": 31320,
			"byteOffset": 2366680,
			"target": 34962
		},
		{
			"buffer": 0,
			"byteLength": 31320,
			"byteOffset": 2398000,
			"target": 34962
		}
	],
	"images": [
		{
			"uri": "WorldGridMaterial_BaseColor.png"
		},
		{
			"uri": "WorldGridMaterial_MetallicRoughness.png"
		},
		{
			"uri": "WorldGridMaterial_Normal.png"
		},
		{
			"uri": "M_Mat_UnrealTech_BaseColor.png"
		}
	],
	"materials": [
		{
			"name": "WorldGridMaterial",
			"pbrMetallicRoughness":
			{
				"baseColorTexture":
				{
					"index": 0
				},
				"metallicRoughnessTexture":
				{
					"index": 1
				}
			},
			"normalTexture":
			{
				"index": 2
			}
		},
		{
			"name": "M_Mat_UnrealTech",
			"pbrMetallicRoughness":
			{
				"baseColorTexture":
				{
					"index": 3
				},
				"metallicFactor": 0.300000012,
				"roughnessFactor": 0.200000003
			}
		}
	],
	"meshes": [
		{
			"name": "SM_MatPreviewMesh_01",
			"primitives": [
				{
					"attributes":
					{
						"POSITION": 1,
						"NORMAL": 2,
						"TANGENT": 3,
						"TEXCOORD_0": 4,
						"TEXCOORD_1": 5,
						"TEXCOORD_2": 6
					},
					"indices": 0,
					"material": 0
				},
				{
					"attributes":
					{
						"POSITION": 8,
						"NORMAL": 9,
						"TANGENT": 10,
						"TEXCOORD_0": 11,
						"TEXCOORD_1": 12,
						"TEXCOORD_2": 13
					},
					"indices": 7,
					"material": 1
				},
				{
					"attributes":
					{
						"POSITION": 15,
						"NORMAL": 16,
						"TANGENT": 17,
						"TEXCOORD_0": 18,
						"TEXCOORD_1": 19,
						"TEXCOORD_2": 20
					},
					"indices": 14,
					"material": 1
				}
			]
		}
	],
	"nodes": [
		{
			"mesh": 0
		}
	],
	"samplers": [
		{
			"minFilter": 9987,
			"magFilter": 9729
		}
	],
	"scenes": [
		{
			"nodes": [ 0 ]
		}
	],
	"textures": [
		{
			"name": "WorldGridMaterial_BaseColor",
			"sampler": 0,
			"source": 0
		},
		{
			"name": "WorldGridMaterial_MetallicRoughness",
			"sampler": 0,
			"source": 1
		},
		{
			"name": "WorldGridMaterial_Normal",
			"sampler": 0,
			"source": 2
		},
		{
			"name": "M_Mat_UnrealTech_BaseColor",
			"sampler": 0,
			"source": 3
		}
	]
}