{
  "accessors": [
    {
      "bufferView": 3,
      "componentType": 5126,
      "count": 6694,
      "max": [
        0.0576448068022728,
        1.3837358951568604,
        0.0462939627468586
      ],
      "min": [
        -0.05815120413899422,
        1.098479986190796,
        -0.1670795977115631
      ],
      "type": "VEC3"
    },
    {
      "bufferView": 3,
      "byteOffset": 80328,
      "componentType": 5126,
      "count": 6694,
      "max": [
        0.9999592900276184,
        0.9998871088027954,
        0.9999385476112366
      ],
      "min": [
        -0.9999520778656006,
        -0.9840526580810547,
        -0.9999328255653381
      ],
      "type": "VEC3"
    },
    {
      "bufferView": 4,
      "componentType": 5126,
      "count": 6694,
      "max": [
        1.0,
        0.9503090381622314,
        0.9999020099639893,
        1.0
      ],
      "min": [
        -0.9999956488609314,
        -0.9998199343681335,
        -0.9999576807022095,
        -1.0
      ],
      "type": "VEC4"
    },
    {
      "bufferView": 2,
      "componentType": 5126,
      "count": 6694,
      "max": [
        0.9204139709472656,
        -0.0026960372924804688
      ],
      "min": [
        0.03410499915480614,
        -0.9627649784088135
      ],
      "type": "VEC2"
    },
    {
      "bufferView": 1,
      "componentType": 5125,
      "count": 25581,
      "type": "SCALAR"
    },
    {
      "bufferView": 5,
      "componentType": 5126,
      "count": 9,
      "max": [
        1.0000001192092896,
        0.00829580519348383,
        3.794905012455274e-07,
        0.0,
        2.1640339298301114e-07,
        1.0,
        0.9163711667060852,
        0.0,
        0.008295804262161255,
        0.15281455218791962,
        1.0,
        0.0,
        0.010464333929121494,
        1.313490390777588,
        0.08358731120824814,
        1.0
      ],
      "min": [
        0.9999312162399292,
        -1.1800187493804515e-09,
        -0.008303099311888218,
        0.0,
        -0.008303098380565643,
        -0.9980498552322388,
        -0.1528145670890808,
        0.0,
        -4.151468058211094e-10,
        -0.91637122631073,
        -0.9980499744415283,
        0.0,
        -0.0010501492070034146,
        -1.240967869758606,
        -1.279524803161621,
        1.0
      ],
      "type": "MAT4"
    },
    {
      "bufferView": 0,
      "componentType": 5123,
      "count": 6694,
      "type": "VEC4"
    },
    {
      "bufferView": 4,
      "byteOffset": 107104,
      "componentType": 5126,
      "count": 6694,
      "max": [
        1.0,
        0.49987390637397766,
        0.2211703360080719,
        0.07910817861557007
      ],
      "min": [
        0.4262424409389496,
        0.0,
        0.0,
        0.0
      ],
      "type": "VEC4"
    }
  ],
  "asset": {
    "extras": {
      "author": "zHairezt (https://sketchfab.com/zHairezt)",
      "license": "CC-BY-4.0 (http://creativecommons.org/licenses/by/4.0/)",
      "source": "https://sketchfab.com/3d-models/chinook-wind-ponytail-with-bones-3f87f94c71ad4973892a8043d111e66c",
      "title": "Chinook Wind Ponytail (With Bones)"
    },
    "generator": "Sketchfab-17.8.0",
    "version": "2.0"
  },
  "bufferViews": [
    {
      "buffer": 0,
      "byteLength": 53552,
      "byteStride": 8,
      "name": "shortBufferViews",
      "target": 34962
    },
    {
      "buffer": 0,
      "byteLength": 102324,
      "byteOffset": 53552,
      "name": "floatBufferViews",
      "target": 34963
    },
    {
      "buffer": 0,
      "byteLength": 53552,
      "byteOffset": 155876,
      "byteStride": 8,
      "name": "floatBufferViews",
      "target": 34962
    },
    {
      "buffer": 0,
      "byteLength": 160656,
      "byteOffset": 209428,
      "byteStride": 12,
      "name": "floatBufferViews",
      "target": 34962
    },
    {
      "buffer": 0,
      "byteLength": 214208,
      "byteOffset": 370084,
      "byteStride": 16,
      "name": "floatBufferViews",
      "target": 34962
    },
    {
      "buffer": 0,
      "byteLength": 576,
      "byteOffset": 584292,
      "name": "floatBufferViews"
    }
  ],
  "buffers": [
    {
      "byteLength": 584868,
      "uri": "scene.bin"
    }
  ],
  "extensionsUsed": [
    "KHR_materials_specular"
  ],
  "images": [
    {
      "uri": "textures/hair.001_baseColor.png"
    },
    {
      "uri": "textures/hair.001_normal.png"
    },
    {
      "uri": "textures/hair.001_specularf0.png"
    }
  ],
  "materials": [
    {
      "alphaMode": "BLEND",
      "doubleSided": true,
      "extensions": {
        "KHR_materials_specular": {
          "specularColorFactor": [
            1.0,
            1.0,
            1.0
          ],
          "specularFactor": 1.0,
          "specularTexture": {
            "index": 2
          }
        }
      },
      "name": "hair.001",
      "normalTexture": {
        "index": 1
      },
      "pbrMetallicRoughness": {
        "baseColorTexture": {
          "index": 0
        },
        "metallicFactor": 0.0,
        "roughnessFactor": 0.760538011550998
      }
    }
  ],
  "meshes": [
    {
      "name": "Generic Item new_mesh_hair.001_0",
      "primitives": [
        {
          "attributes": {
            "JOINTS_0": 6,
            "NORMAL": 1,
            "POSITION": 0,
            "TANGENT": 2,
            "TEXCOORD_0": 3,
            "WEIGHTS_0": 7
          },
          "indices": 4,
          "material": 0,
          "mode": 4
        }
      ]
    }
  ],
  "nodes": [
    {
      "children": [
        1
      ],
      "matrix": [
        1.0,
        0.0,
        0.0,
        0.0,
        0.0,
        2.220446049250313e-16,
        -1.0,
        0.0,
        0.0,
        1.0,
        2.220446049250313e-16,
        0.0,
        0.0,
        0.0,
        0.0,
        1.0
      ],
      "name": "Sketchfab_model"
    },
    {
      "children": [
        2
      ],
      "matrix": [
        0.009999999776482582,
        0.0,
        0.0,
        0.0,
        0.0,
        0.0,
        0.009999999776482582,
        0.0,
        0.0,
        -0.009999999776482582,
        0.0,
        0.0,
        0.0,
        0.0,
        0.0,
        1.0
      ],
      "name": "02beae2de733445ab8c7f39510a952dc.fbx"
    },
    {
      "children": [
        3
      ],
      "name": "RootNode"
    },
    {
      "children": [
        4
      ],
      "matrix": [
        531.9210815429688,
        0.0,
        0.0,
        0.0,
        0.0,
        -8.666094398781823e-05,
        -531.9210815429617,
        0.0,
        0.0,
        531.9210815429617,
        -8.666094398781823e-05,
        0.0,
        0.0,
        0.0,
        0.0,
        1.0
      ],
      "name": "Generic Item new"
    },
    {
      "children": [
        5
      ],
      "matrix": [
        1.0000001192092896,
        0.0,
        0.0,
        0.0,
        0.0,
        1.0000001192092896,
        -2.6469779601696874e-23,
        0.0,
        0.0,
        2.6469779601696874e-23,
        1.0000001192092896,
        0.0,
        0.0,
        0.0,
        0.0,
        1.0
      ],
      "name": "Generic Item new_arm"
    },
    {
      "children": [
        6,
        16,
        15
      ],
      "name": "Object_5"
    },
    {
      "children": [
        7
      ],
      "name": "_rootJoint"
    },
    {
      "children": [
        8
      ],
      "name": "head neck upper_00",
      "rotation": [
        0.7074052691459656,
        6.579088940306121e-10,
        -0.005868700332939625,
        0.7067838311195374
      ],
      "scale": [
        1.0,
        0.9999999403953552,
        0.9999999403953552
      ],
      "translation": [
        2.078595571219921e-07,
        0.01930605247616768,
        1.2410286664962769
      ]
    },
    {
      "children": [
        9
      ],
      "name": "ponytail a_01",
      "rotation": [
        -0.8369846940040588,
        -0.0012000653659924865,
        0.005744692403823137,
        0.5471948385238647
      ],
      "scale": [
        1.0,
        0.9999999403953552,
        1.0
      ],
      "translation": [
        -0.00038651435170322657,
        0.12649084627628326,
        -0.046589791774749756
      ]
    },
    {
      "children": [
        10
      ],
      "name": "ponytail b_02",
      "rotation": [
        -0.47903043031692505,
        2.3637996449110688e-08,
        -1.1533435895216826e-07,
        0.877798318862915
      ],
      "scale": [
        1.0,
        1.0,
        0.9999999403953552
      ],
      "translation": [
        -2.7497039367663234e-11,
        0.04836926609277725,
        3.725488539885191e-08
      ]
    },
    {
      "children": [
        11
      ],
      "name": "ponytail c_03",
      "rotation": [
        -0.15597835183143616,
        -8.928075345693287e-08,
        7.653627420722842e-08,
        0.9877604842185974
      ],
      "scale": [
        1.0,
        1.0,
        0.9999999403953552
      ],
      "translation": [
        -1.4669154779767268e-10,
        0.04421231895685196,
        7.610506891353452e-09
      ]
    },
    {
      "children": [
        12
      ],
      "name": "ponytail d_04",
      "rotation": [
        0.04141814634203911,
        1.1910704245110537e-07,
        4.9374304644800304e-09,
        0.9991419911384583
      ],
      "translation": [
        -1.1641319852540022e-10,
        0.040862586349248886,
        7.450000172326554e-09
      ]
    },
    {
      "children": [
        13
      ],
      "name": "ponytail e_05",
      "rotation": [
        0.004045831970870495,
        -1.1920833031808797e-07,
        4.823001442666452e-10,
        0.9999918341636658
      ],
      "scale": [
        1.0,
        0.9999998807907104,
        0.9999998807907104
      ],
      "translation": [
        -4.156675004196586e-12,
        0.034390199929475784,
        2.1124839655328742e-09
      ]
    },
    {
      "children": [
        14
      ],
      "name": "ponytail f_06",
      "rotation": [
        -0.02082887291908264,
        1.0673910821878962e-07,
        -1.0027163455106347e-07,
        0.9997830390930176
      ],
      "translation": [
        -1.1641639041659602e-10,
        0.03733347728848457,
        -4.697076061432881e-13
      ]
    },
    {
      "name": "ponytail g_07",
      "rotation": [
        0.11380306631326675,
        1.0078421297521345e-07,
        5.190153729017766e-08,
        0.9935033321380615
      ],
      "translation": [
        -5.7628568583822926e-11,
        0.040971849113702774,
        2.2795106080497618e-10
      ]
    },
    {
      "matrix": [
        531.9211538589802,
        1.4767871761578455e-07,
        1.949461010397613e-07,
        0.0,
        1.9494610241178745e-07,
        -2.311779948933665e-08,
        -531.9211575851165,
        0.0,
        -1.4767871864102976e-07,
        531.9211575823084,
        -2.3117799543338027e-08,
        0.0,
        1.3275035470883267e-07,
        2.9768000445073994e-05,
        -3.1342882955698315e-07,
        1.0
      ],
      "name": "Object_15"
    },
    {
      "mesh": 0,
      "name": "Object_16",
      "skin": 0
    }
  ],
  "samplers": [
    {
      "magFilter": 9729,
      "minFilter": 9987,
      "wrapS": 10497,
      "wrapT": 10497
    }
  ],
  "scene": 0,
  "scenes": [
    {
      "name": "Sketchfab_Scene",
      "nodes": [
        0
      ]
    }
  ],
  "skins": [
    {
      "inverseBindMatrices": 5,
      "joints": [
        6,
        7,
        8,
        9,
        10,
        11,
        12,
        13,
        14
      ],
      "skeleton": 6
    }
  ],
  "textures": [
    {
      "sampler": 0,
      "source": 0
    },
    {
      "sampler": 0,
      "source": 1
    },
    {
      "sampler": 0,
      "source": 2
    }
  ]
}
