{
  "accessors": [
    {
      "bufferView": 2,
      "componentType": 5126,
      "count": 65532,
      "max": [
        9.790596008300781,
        21.729312896728516,
        15.382536888122559
      ],
      "min": [
        -16.01736831665039,
        -21.10716438293457,
        -16.361709594726563
      ],
      "type": "VEC3"
    },
    {
      "bufferView": 2,
      "byteOffset": 786384,
      "componentType": 5126,
      "count": 65532,
      "max": [
        0.9999942183494568,
        0.9999988675117493,
        0.9999923706054688
      ],
      "min": [
        -0.9999998807907104,
        -0.9998900294303894,
        -0.9999884963035583
      ],
      "type": "VEC3"
    },
    {
      "bufferView": 3,
      "componentType": 5126,
      "count": 65532,
      "max": [
        0.9999909400939941,
        0.9912447333335876,
        0.9999846816062927,
        1.0
      ],
      "min": [
        -0.9997184872627258,
        -0.9996703267097473,
        -0.9999950528144836,
        1.0
      ],
      "type": "VEC4"
    },
    {
      "bufferView": 1,
      "componentType": 5126,
      "count": 65532,
      "max": [
        0.9854720234870911,
        0.9980469942092896
      ],
      "min": [
        0.010943000204861164,
        0.0019529999699443579
      ],
      "type": "VEC2"
    },
    {
      "bufferView": 0,
      "componentType": 5125,
      "count": 357504,
      "type": "SCALAR"
    },
    {
      "bufferView": 2,
      "byteOffset": 1572768,
      "componentType": 5126,
      "count": 30144,
      "max": [
        9.741400718688965,
        21.729312896728516,
        15.378701210021973
      ],
      "min": [
        -15.73662281036377,
        -21.042814254760742,
        -16.36170768737793
      ],
      "type": "VEC3"
    },
    {
      "bufferView": 2,
      "byteOffset": 1934496,
      "componentType": 5126,
      "count": 30144,
      "max": [
        0.9999937415122986,
        0.9999993443489075,
        0.9999850988388062
      ],
      "min": [
        -0.999691903591156,
        -0.9998864531517029,
        -0.9999868869781494
      ],
      "type": "VEC3"
    },
    {
      "bufferView": 3,
      "byteOffset": 1048512,
      "componentType": 5126,
      "count": 30144,
      "max": [
        0.9999876022338867,
        0.9999638199806213,
        0.9999118447303772,
        1.0
      ],
      "min": [
        -0.9982505440711975,
        -0.9992629289627075,
        -0.9999699592590332,
        1.0
      ],
      "type": "VEC4"
    },
    {
      "bufferView": 1,
      "byteOffset": 524256,
      "componentType": 5126,
      "count": 30144,
      "max": [
        0.970736026763916,
        0.9968000054359436
      ],
      "min": [
        0.0019529999699443579,
        0.00710600009188056
      ],
      "type": "VEC2"
    },
    {
      "bufferView": 0,
      "byteOffset": 1430016,
      "componentType": 5125,
      "count": 137808,
      "type": "SCALAR"
    }
  ],
  "asset": {
    "extras": {
      "author": "Andy woodhead (https://sketchfab.com/Andywoodhead)",
      "license": "CC-BY-4.0 (http://creativecommons.org/licenses/by/4.0/)",
      "source": "https://sketchfab.com/3d-models/head-sculpt-437c717163dc4ffd9742a08ffeb9222c",
      "title": "Head sculpt"
    },
    "generator": "Sketchfab-13.16.0",
    "version": "2.0"
  },
  "bufferViews": [
    {
      "buffer": 0,
      "byteLength": 1981248,
      "name": "floatBufferViews",
      "target": 34963
    },
    {
      "buffer": 0,
      "byteLength": 765408,
      "byteOffset": 1981248,
      "byteStride": 8,
      "name": "floatBufferViews",
      "target": 34962
    },
    {
      "buffer": 0,
      "byteLength": 2296224,
      "byteOffset": 2746656,
      "byteStride": 12,
      "name": "floatBufferViews",
      "target": 34962
    },
    {
      "buffer": 0,
      "byteLength": 1530816,
      "byteOffset": 5042880,
      "byteStride": 16,
      "name": "floatBufferViews",
      "target": 34962
    }
  ],
  "buffers": [
    {
      "byteLength": 6573696,
      "uri": "scene.bin"
    }
  ],
  "images": [
    {
      "uri": "textures/Head_20_baseColor.jpeg"
    },
    {
      "uri": "textures/Head_20_metallicRoughness.png"
    },
    {
      "uri": "textures/Head_20_normal.png"
    }
  ],
  "materials": [
    {
      "doubleSided": true,
      "name": "Head_20",
      "normalTexture": {
        "index": 2
      },
      "occlusionTexture": {
        "index": 1
      },
      "pbrMetallicRoughness": {
        "baseColorTexture": {
          "index": 0
        },
        "metallicRoughnessTexture": {
          "index": 1
        }
      }
    }
  ],
  "meshes": [
    {
      "name": "defaultMaterial",
      "primitives": [
        {
          "attributes": {
            "NORMAL": 1,
            "POSITION": 0,
            "TANGENT": 2,
            "TEXCOORD_0": 3
          },
          "indices": 4,
          "material": 0,
          "mode": 4
        }
      ]
    },
    {
      "name": "defaultMaterial",
      "primitives": [
        {
          "attributes": {
            "NORMAL": 6,
            "POSITION": 5,
            "TANGENT": 7,
            "TEXCOORD_0": 8
          },
          "indices": 9,
          "material": 0,
          "mode": 4
        }
      ]
    }
  ],
  "nodes": [
    {
      "children": [
        1
      ],
      "matrix": [
        1.0,
        0.0,
        0.0,
        0.0,
        0.0,
        2.220446049250313e-16,
        -1.0,
        0.0,
        0.0,
        1.0,
        2.220446049250313e-16,
        0.0,
        0.0,
        0.0,
        0.0,
        1.0
      ],
      "name": "Sketchfab_model"
    },
    {
      "children": [
        2
      ],
      "matrix": [
        1.0,
        0.0,
        0.0,
        0.0,
        0.0,
        -4.371139006309477e-08,
        0.999999999999999,
        0.0,
        0.0,
        -0.999999999999999,
        -4.371139006309477e-08,
        0.0,
        0.0,
        0.0,
        0.0,
        1.0
      ],
      "name": "Collada visual scene group"
    },
    {
      "children": [
        3,
        4
      ],
      "name": "Head"
    },
    {
      "mesh": 0,
      "name": "defaultMaterial"
    },
    {
      "mesh": 1,
      "name": "defaultMaterial"
    }
  ],
  "samplers": [
    {
      "magFilter": 9729,
      "minFilter": 9987,
      "wrapS": 10497,
      "wrapT": 10497
    }
  ],
  "scene": 0,
  "scenes": [
    {
      "name": "Sketchfab_Scene",
      "nodes": [
        0
      ]
    }
  ],
  "textures": [
    {
      "sampler": 0,
      "source": 0
    },
    {
      "sampler": 0,
      "source": 1
    },
    {
      "sampler": 0,
      "source": 2
    }
  ]
}
